<svg xmlns="http://www.w3.org/2000/svg" width="10" height="10" viewBox="0 0 10 10"><g><g><path fill="#7a7a7a" d="M8.477 9.017c.123.702-.496.88-.473.866-.015.004-.141.035-.414.106-.273.07-.372-.17-.372-.17S5.433 6.383 5.337 6.183c-.097-.2-.25-.052-.25-.052S3.434 7.544 3.098 7.868c-.336.324-.266.373-.266.373s-.045-.007.293.597c.337.604.064.817.064.817l-.262.252c-.261.251-.596-.07-.596-.07l-2.13-2.05c-.352-.34-.171-.48-.171-.48s-.032.014.263-.313c.296-.326.573-.14.573-.14l.933.33s1.764-1.989 2.006-2.222c.243-.234-.019-.333-.019-.333S.955 3.054.355 2.836c-.6-.218-.293-.597-.293-.597l.462-.562c.3-.297.48-.168.48-.168s4.745.989 5.004 1.04c.26.052.449-.197.449-.197L8.189.684c.295-.283.519-.382.519-.382s.29-.21.64-.265c.765-.216.64.615.64.615s-.04.405-.283.8c-.148.225-.329.374-.329.374s-1.752 1.704-1.765 1.7c-.269.19-.201.31-.201.31"/></g></g></svg>